<mxfile host="app.diagrams.net" modified="2023-10-26T08:39:45.707Z" agent="Mozilla/5.0 (Windows NT 10.0; Win64; x64) AppleWebKit/537.36 (KHTML, like Gecko) Chrome/93.0.4577.63 Safari/537.36 Edg/93.0.961.47" etag="3TFykgJvQYLigFS8_vQn" version="22.0.7" type="github">
  <diagram name="第 1 页" id="EeFLsb61v85bFlHC6mkP">
    <mxGraphModel dx="1290" dy="580" grid="1" gridSize="10" guides="1" tooltips="1" connect="1" arrows="1" fold="1" page="1" pageScale="1" pageWidth="827" pageHeight="1169" math="0" shadow="0">
      <root>
        <mxCell id="0" />
        <mxCell id="1" parent="0" />
        <mxCell id="aVBQTi54vhddNaNI3xyI-3" value="" style="edgeStyle=orthogonalEdgeStyle;rounded=0;orthogonalLoop=1;jettySize=auto;html=1;" edge="1" parent="1" source="aVBQTi54vhddNaNI3xyI-1" target="aVBQTi54vhddNaNI3xyI-2">
          <mxGeometry relative="1" as="geometry" />
        </mxCell>
        <mxCell id="aVBQTi54vhddNaNI3xyI-1" value="开始" style="rounded=1;whiteSpace=wrap;html=1;" vertex="1" parent="1">
          <mxGeometry y="180" width="120" height="60" as="geometry" />
        </mxCell>
        <mxCell id="aVBQTi54vhddNaNI3xyI-5" value="" style="edgeStyle=orthogonalEdgeStyle;rounded=0;orthogonalLoop=1;jettySize=auto;html=1;" edge="1" parent="1" source="aVBQTi54vhddNaNI3xyI-2" target="aVBQTi54vhddNaNI3xyI-4">
          <mxGeometry relative="1" as="geometry" />
        </mxCell>
        <mxCell id="aVBQTi54vhddNaNI3xyI-2" value="选中“另存为HNF文件”" style="rounded=1;whiteSpace=wrap;html=1;" vertex="1" parent="1">
          <mxGeometry x="160" y="180" width="120" height="60" as="geometry" />
        </mxCell>
        <mxCell id="aVBQTi54vhddNaNI3xyI-7" value="" style="edgeStyle=orthogonalEdgeStyle;rounded=0;orthogonalLoop=1;jettySize=auto;html=1;" edge="1" parent="1" source="aVBQTi54vhddNaNI3xyI-4" target="aVBQTi54vhddNaNI3xyI-6">
          <mxGeometry relative="1" as="geometry" />
        </mxCell>
        <mxCell id="aVBQTi54vhddNaNI3xyI-4" value="对导出的HNF文件命名" style="rounded=1;whiteSpace=wrap;html=1;" vertex="1" parent="1">
          <mxGeometry x="320" y="180" width="120" height="60" as="geometry" />
        </mxCell>
        <mxCell id="aVBQTi54vhddNaNI3xyI-9" style="edgeStyle=orthogonalEdgeStyle;rounded=0;orthogonalLoop=1;jettySize=auto;html=1;entryX=0;entryY=0.5;entryDx=0;entryDy=0;" edge="1" parent="1" source="aVBQTi54vhddNaNI3xyI-6" target="aVBQTi54vhddNaNI3xyI-8">
          <mxGeometry relative="1" as="geometry" />
        </mxCell>
        <mxCell id="aVBQTi54vhddNaNI3xyI-6" value="将数据模型存储的信息保存到HNF文件" style="rounded=1;whiteSpace=wrap;html=1;" vertex="1" parent="1">
          <mxGeometry x="480" y="180" width="120" height="60" as="geometry" />
        </mxCell>
        <mxCell id="aVBQTi54vhddNaNI3xyI-8" value="结束" style="rounded=1;whiteSpace=wrap;html=1;" vertex="1" parent="1">
          <mxGeometry x="640" y="180" width="120" height="60" as="geometry" />
        </mxCell>
      </root>
    </mxGraphModel>
  </diagram>
</mxfile>
